<svg xmlns="http://www.w3.org/2000/svg" xmlns:xlink="http://www.w3.org/1999/xlink" version="1.1" id="Layer_1" x="0px" y="0px" style="enable-background:new 0 0 2967.22 2530.12;" xml:space="preserve" viewBox="-0.01 -0.02 2967.24 2530.14">
<style type="text/css">
	.st0{fill:#FFFFFF;}
	.st1{opacity:0.15;}
	.st2{fill:#371A45;}
	.st3{opacity:0.4;}
	.st4{fill:#71CCFF;}
	.st5{opacity:0.25;}
	.st6{fill:#220F2D;}
	.st7{opacity:0.5;}
	.st8{opacity:0.35;}
	.st9{fill:#22A7F0;}
	.st10{fill:#1C7AEA;}
	.st11{opacity:0.7;}
	.st12{fill:#F78631;}
	.st13{fill:#995834;}
	.st14{fill:#723517;}
	.st15{fill:#FFB140;}
	.st16{fill:#DD4040;}
	.st17{fill:#BC2E2E;}
	.st18{fill:#49C437;}
	.st19{fill:#31A319;}
	.st20{fill:#FCA054;}
	.st21{opacity:0.3;}
	.st22{fill:#FFF1B6;}
	.st23{fill:#E2D28D;}
	.st24{fill:#390075;}
	.st25{fill:#FF6F03;}
	.st26{opacity:0.6;}
	.st27{fill:#0096F0;}
	.st28{fill:#6B184E;}
	.st29{fill:#F27E80;}
	.st30{fill:#FF67A0;}
	.st31{fill:#B199C5;}
	.st32{fill:#76DCFF;}
	.st33{fill:#FF953E;}
	.st34{fill:#FD6CCB;}
	.st35{fill:#FF66AC;}
	.st36{opacity:0.2;}
	.st37{fill:#FEF26B;}
	.st38{fill:#102770;}
	.st39{fill:#07BCF8;}
	.st40{fill:#FFCEDA;}
	.st41{fill:#FFEB52;}
	.st42{fill:#FD45C5;}
	.st43{fill:#F282BD;}
	.st44{fill:#FDD800;}
	.st45{fill:#EFA500;}
	.st46{fill:#ED8A2F;}
	.st47{fill:#FF9750;}
	.st48{fill:#FFB345;}
	.st49{fill:#39D4FF;}
	.st50{fill:none;stroke:#371A45;stroke-width:40.8151;stroke-linecap:round;stroke-miterlimit:10;}
	.st51{fill:#1D7DEF;}
	.st52{fill:#21102B;}
	.st53{fill:#FF8B2C;}
	.st54{fill:#FFD243;}
	.st55{fill:#FF9D33;}
	.st56{fill:#DBDBDB;}
	.st57{fill:#000072;}
	.st58{fill:#FF0068;}
	.st59{fill:#A1A6D1;}
	.st60{fill:#74698B;}
	.st61{fill:#606060;}
	.st62{fill:#8CDE40;}
	.st63{fill:#EDEDED;}
	.st64{fill:#43DDC6;}
	.st65{fill:#D83D3D;}
	.st66{fill:none;stroke:#000072;stroke-width:27.8969;stroke-linecap:round;stroke-miterlimit:10;}
	.st67{fill:#FEDA24;}
	.st68{fill:#99A4C4;}
	.st69{fill:#576BA0;}
	.st70{opacity:0.41;}
	.st71{fill:#0DAD00;}
	.st72{clip-path:url(#SVGID_00000062161888556926231520000016680218402843140249_);}
	.st73{fill:#29B8FF;}
	.st74{fill:#22DD3C;}
	.st75{fill:#2276FC;}
	.st76{clip-path:url(#SVGID_00000109722839735837700610000003635359578748768668_);}
	.st77{fill:#9042E2;}
	.st78{fill:#CA8DFF;}
	.st79{fill:#FF9100;}
	.st80{fill:#FFB200;}
	.st81{fill:none;stroke:#293856;stroke-width:36.7632;stroke-linecap:round;stroke-miterlimit:10;}
	.st82{fill:#D66B09;}
	.st83{fill:#FFD766;}
	.st84{fill:#FFAA39;}
	.st85{fill:#FFCF6E;}
	.st86{fill:#FFEC90;}
	.st87{fill:#FF1B40;}
	.st88{fill:#2C9BFF;}
	.st89{fill:#921FE5;}
	.st90{fill:#1D1D1D;}
	.st91{fill:#32B1D1;}
	.st92{fill:#FFCB57;}
	.st93{fill:#F72B3A;}
	.st94{fill:#F96F3A;}
	.st95{fill:#FF9750;stroke:#371A45;stroke-width:35.1861;stroke-linecap:round;stroke-miterlimit:10;}
	.st96{fill:#C66F34;}
	.st97{fill:#FFD797;}
	.st98{fill:#F9BB5F;}
	.st99{fill:#FFC022;}
	.st100{fill:#FFA64D;}
	.st101{fill:#FF6F27;}
	.st102{fill:#FCAC38;}
	.st103{fill:#FF8A3B;}
	.st104{fill:#FFA92C;}
	.st105{clip-path:url(#SVGID_00000156569181310065486760000008247527433604536752_);}
	.st106{clip-path:url(#SVGID_00000101820607746462320080000004134048247913431735_);}
	.st107{fill:none;stroke:#293856;stroke-width:27.6755;stroke-linecap:round;stroke-miterlimit:10;}
	.st108{fill:#232333;}
	.st109{fill:#686779;}
	.st110{fill:#60557D;}
	.st111{fill:none;stroke:#1D1D1D;stroke-width:35.1861;stroke-linecap:round;stroke-miterlimit:10;}
	.st112{fill:#D4D4D6;}
	.st113{fill:#9A9A9E;}
	.st114{fill:url(#SVGID_00000072990512008996333450000014904127556524155532_);}
	.st115{fill:url(#SVGID_00000067918452531268642380000011963993146960115638_);}
	.st116{fill:url(#SVGID_00000062186463586978511740000000900611958526536102_);}
	.st117{fill:url(#SVGID_00000084495699124244850960000004022647743415170188_);}
	.st118{fill:url(#SVGID_00000150792054966989926260000005392256497150877342_);}
	.st119{fill:url(#SVGID_00000165198500495567291310000001701380195714043069_);}
	.st120{fill:#FFFFFF;stroke:#232333;stroke-width:17.593;stroke-linecap:round;stroke-linejoin:round;stroke-miterlimit:10;}
	.st121{fill:#4DA2FF;}
	.st122{fill:none;stroke:#6B184E;stroke-width:35.1861;stroke-linecap:round;stroke-miterlimit:10;}
</style>
<g>
	<g>
		<g>
			<g>
				<path class="st0" d="M1183.04,2453.45l-286.02,0.92c0,0-378.12-53.92-379.7-450.03c0-5.59,0-11.17,0.13-16.76      c2.37-163.7,48.42-331.5,67.51-460.45c18.38-124.38,11.74-212.61-83.13-226.29c-171.4-24.76-87.48,199.77-240.23,238.21      C72.75,1586.6-39.32,1423.78,47.72,1179.85c65.36-183.1,250.3-241.9,373.06-241.9c171.97,0,297.41,95.27,368.97,248.68      c38.35,82.2,51.37,159.79,50.23,234.3c-3.3,216.35-126.36,406.09-96.19,603.66c3.56,23.44,9.94,46.09,18.6,67.87      C851.59,2317.72,1183.04,2453.45,1183.04,2453.45z"/>
			</g>
		</g>
		<g class="st21">
			<g>
				<path class="st24" d="M1183.04,2453.45l-286.02,0.92c0,0-378.12-53.92-379.7-450.03c0-5.59,0-11.17,0.13-16.76      c28.41,100.85,73.23,187.67,143.6,195.41c60.39,6.6,85.24-33.34,101.34-90.56C851.59,2317.72,1183.04,2453.45,1183.04,2453.45z"/>
			</g>
		</g>
		<g>
			<g>
				<path class="st25" d="M839.98,1420.92c-68.13,64.13-157.85,105.43-255.01,106.22c0.04-0.22,0.04-0.44,0.09-0.66      c18.25-124.03,11.48-212-83.22-225.63c-171.4-24.76-87.48,199.77-240.23,238.21c-111.8,28.15-196.69-17.42-229.28-109.87      c-22.48-63.77-20.14-149.8,15.39-249.34c65.36-183.1,250.3-241.9,373.06-241.9c171.97,0,297.41,95.27,368.97,248.68      C828.1,1268.82,841.12,1346.41,839.98,1420.92z"/>
			</g>
		</g>
		<g class="st21">
			<g>
				<path class="st24" d="M585.06,1526.47c18.25-124.03,11.48-212-83.22-225.63c-171.4-24.76-87.48,199.77-240.23,238.21      c-111.8,28.15-196.69-17.42-229.28-109.87c20.36,21.16,61.66,42.71,144.92,37.17c155.21-10.38,144.61-148.88,200.52-230.29      c33.07-48.16,187.81-88.45,242.92,40.95C664.22,1379.22,625.34,1469.08,585.06,1526.47z"/>
			</g>
		</g>
		<g class="st26">
			<g>
				<path class="st0" d="M836.99,1353.84c-8.05-34.83-20.1-70.42-37.12-106.97c-71.56-153.41-197-248.68-368.97-248.68      c-122.76,0-307.7,58.8-373.06,241.9c-23.49,65.8-32.46,125.7-29.34,177.16c-18.25-62.37-14.12-143.95,19.22-237.42      c65.36-183.1,250.3-241.9,373.06-241.9c171.97,0,297.41,95.27,368.97,248.68C816.71,1244.46,831.18,1300.05,836.99,1353.84z"/>
			</g>
		</g>
		<g>
			<g>
				<path class="st24" d="M895.76,2472.47l-1.3-0.19c-4.02-0.57-99.7-14.8-196.72-79.33c-90.09-59.91-197.66-175.95-198.49-388.52      c-0.47-119.83,23.38-242.22,44.41-350.21c26.39-135.45,49.17-252.43,11.88-304.94c-11.95-16.83-30.36-26.83-56.27-30.57      c-72.69-10.5-88.06,25.05-111.02,94.11c-18.27,54.93-41,123.3-122.22,143.74c-85.71,21.57-160.13,3.48-209.56-50.94      c-64.82-71.38-74.45-195.43-25.77-331.85c30.64-85.85,90.61-154.83,173.43-199.47c64.21-34.61,143.16-54.46,216.62-54.46      c170.55,0,307.41,92.02,385.36,259.12c91.31,195.73,44.34,363.58-1.09,525.9c-30.54,109.12-59.38,212.18-43.38,316.99      c38.52,252.3,424.35,413.28,428.24,414.87l84.15,34.51L895.76,2472.47z M476.85,1280.84c8.53,0,17.7,0.67,27.6,2.1      c35.73,5.16,62.85,20.44,80.59,45.42c46.27,65.15,23.26,183.26-5.87,332.79c-20.72,106.34-44.2,226.88-43.74,343.15      c0.62,157.86,61.97,278.5,182.35,358.55c84.68,56.31,169.66,71.66,180.62,73.46l204.72-0.66      c-119.65-62.07-346.12-204.78-377.19-408.32c-17.18-112.51,12.69-219.22,44.3-332.19c43.65-155.98,88.79-317.27,3.14-500.86      c-72.72-155.87-194.64-238.25-352.6-238.25c-126.37,0-295.44,60.22-356,229.93C20.64,1309.58,27.55,1420,83.25,1481.33      c40.02,44.07,101.8,58.35,173.96,40.18c62-15.6,78.87-66.35,96.74-120.08C372.85,1344.57,394.05,1280.84,476.85,1280.84z"/>
			</g>
		</g>
		<g>
			<g>
				<path class="st27" d="M2465.66,2405.9H903.8c0,0-196.16-15.39-88.14-300.75c133.62-353.09,486.49-582.95,864.87-645.53h8.36      c378.38,62.59,731.3,292.44,864.92,645.53C2661.78,2390.5,2465.66,2405.9,2465.66,2405.9z"/>
			</g>
		</g>
		<g class="st11">
			<g>
				<path class="st0" d="M2584.5,2282.89c-3.61-33.21-13.15-72.48-30.7-118.89c-133.62-353.09-486.54-582.94-864.92-645.53h-8.36      c-378.38,62.59-731.25,292.44-864.87,645.53c-17.55,46.4-27.09,85.68-30.7,118.89c-5.54-42.75,1.41-100.32,30.7-177.73      c133.62-353.09,486.49-582.95,864.87-645.53h8.36c378.38,62.59,731.3,292.44,864.92,645.53      C2583.1,2182.56,2590,2240.14,2584.5,2282.89z"/>
			</g>
		</g>
		<g>
			<g>
				<path class="st0" d="M2414.16,2405.9H965.68c-32.94-25.11-69.18-71.52-65.89-153.59c6.03-147.96,42.49-175.49,42.49-175.49      s49.44-71.82,173.6-67.69c124.21,4.13,193.52,38.31,215.25,100.37h705.79c0,0,47.63-116.91,229.77-99.31      c182.13,17.59,191.46,147.96,191.46,147.96S2497.07,2304.69,2414.16,2405.9z"/>
			</g>
		</g>
		<g class="st21">
			<g>
				<path class="st24" d="M2465.63,2405.89H903.77c0,0-137.22-10.78-118.87-181.28c0.26,2.06,0.55,4.08,0.86,6.07      c13.2,83.48,126.84,99.8,164.79,24.28l17.16-34.16h1432.85l18.39,35.96c38.33,74.97,150.79,58.26,164.52-24.82      c0.4-2.4,0.75-4.85,1.07-7.35C2602.89,2395.11,2465.63,2405.89,2465.63,2405.89z"/>
			</g>
		</g>
		<g>
			<g>
				<path class="st0" d="M948.91,2072.91c41.64-35.92,96.53-63.61,166.88-63.84c185.66-0.59,256.55,92.01,213.05,219.18      c-21.65,63.29-252.91,123.11-361.14-7.44l-62.86,6.98C904.85,2227.8,871.46,2139.73,948.91,2072.91z"/>
			</g>
		</g>
		<g class="st5">
			<g>
				<path class="st28" d="M1328.86,2228.27c-21.68,63.28-252.92,123.07-361.14-7.45l0,0c0-22.86,25.33-36.25,44.48-23.77      c117.03,76.28,297.63,23.41,316.66-32.15c4.16-12.11,7.24-23.92,9.32-35.37C1344.34,2158.75,1341.22,2192.12,1328.86,2228.27z"/>
			</g>
		</g>
		<g>
			<g>
				<path class="st24" d="M832.74,2232.66c6.25-24.51,15.81-47.19,27.21-69.37c5.78-11,11.96-21.85,18.91-32.24      c6.8-10.48,14.22-20.61,22.2-30.31c31.76-38.81,73.03-71.51,121.15-90.21c23.95-9.41,49.42-15.04,75.04-16.92l19.21-0.81      c6.23,0.06,12.45,0.02,18.69,0.18c12.48,0.43,24.98,1.16,37.49,2.62c24.99,2.82,50.09,7.77,74.44,16.72      c24.28,8.79,47.98,21.93,67.56,40.86c19.74,18.72,33.76,44.15,39.47,70.74c5.84,26.62,4.55,53.81-1.05,79.07      c-1.24,6.4-3.08,12.57-4.76,18.8l-2.92,9.17l-0.73,2.29c-0.25,0.78-0.79,1.94-1.19,2.89c-0.86,1.99-1.77,3.98-2.7,5.93      c-8.38,14.36-19.56,23.4-30.71,31.08c-22.62,14.99-46.92,23.68-71.51,30.24c-24.68,6.16-49.84,9.85-75.17,10.42      c-25.3,0.59-50.79-1.25-75.73-6.86c-12.49-2.62-24.79-6.35-36.76-10.99c-6.01-2.21-11.84-5.01-17.66-7.7      c-5.62-3.18-11.42-5.95-16.82-9.48c-21.69-13.8-40.95-31.76-54.46-53.19c-2.23-3.53-1.17-8.2,2.37-10.43      c2.94-1.86,6.67-1.43,9.13,0.81l0.05,0.05c34.62,31.6,75.57,52.22,120.44,61.35c44.7,9.14,92.2,6.7,136.44-4.99      c21.94-6.06,43.59-14.48,61.21-26.5c8.71-5.86,16.34-13.01,20.13-19.69c0.3-0.8,0.62-1.58,0.99-2.35      c0.18-0.45,0.37-0.62,0.58-1.28l0.63-2.03l2.55-8.11c1.42-5.45,3.04-10.87,4.05-16.36c4.77-21.85,5.43-44.13,0.81-64.76      c-4.58-20.65-15.07-39.27-30.27-54.02c-15.15-14.81-34.49-25.96-55.54-33.67c-21.02-7.87-43.65-12.54-66.64-15.23      c-11.49-1.42-23.13-2.11-34.8-2.64c-5.84-0.22-11.7-0.25-17.56-0.39l-17.02,0.51c-22.61,1.38-44.93,6.03-66.08,14.05      c-21.17,7.95-41.18,19.09-59.6,32.63c-18.47,13.52-35.02,29.76-50.41,47.09c-15.2,17.53-29.25,36.29-41.89,56.12      c-12.71,19.68-24.44,40.62-34.52,61.63l-0.19,0.39c-1.79,3.74-6.28,5.32-10.02,3.52      C833.49,2239.71,831.88,2236.06,832.74,2232.66z"/>
			</g>
		</g>
		<g>
			<g>
				<path class="st0" d="M2418.56,2078.65c-41.6-38.67-97.48-69.34-170.19-69.58c-182.27-0.59-251.87,92.01-209.17,219.18      c21.25,63.29,248.3,123.11,354.56-7.44l69.71,7.89C2463.47,2228.7,2489.98,2145.04,2418.56,2078.65z"/>
			</g>
		</g>
		<g class="st5">
			<g>
				<path class="st28" d="M2400.55,2220.83c-108.22,130.52-339.47,70.73-361.14,7.45c-12.36-36.16-15.48-69.52-9.32-98.73      c2.08,11.44,5.16,23.26,9.32,35.37c19.03,55.56,199.64,108.44,316.66,32.15C2375.22,2184.58,2400.55,2197.97,2400.55,2220.83      L2400.55,2220.83z"/>
			</g>
		</g>
		<g>
			<g>
				<path class="st24" d="M2521.29,2237.38c-11.27-20.55-23.27-41.18-35.9-60.82c-12.59-19.74-26.14-38.77-41.3-56.25      c-7.58-8.73-15.52-17.12-23.86-25.01c-4.04-4.1-8.5-7.7-12.71-11.59c-4.44-3.6-8.81-7.3-13.39-10.7      c-18.31-13.6-38.06-25.11-59.15-33.37c-21.05-8.37-43.42-13.21-66.11-14.86l-17.1-0.69c-5.87,0.12-11.75,0.13-17.6,0.33      c-11.7,0.5-23.38,1.22-34.91,2.65c-23.07,2.71-45.79,7.41-66.94,15.33c-21.17,7.77-40.67,19.01-55.98,33.99      c-15.4,14.89-25.85,33.88-30.36,54.72c-4.52,20.84-3.77,43.22,1.08,65.14c1.04,5.5,2.68,10.94,4.12,16.4l2.58,8.12l0.64,2.03      c0.21,0.66,0.41,0.86,0.6,1.31c0.38,0.79,0.72,1.59,1.03,2.41c3.91,6.8,11.63,13.95,20.4,19.81c8.84,5.93,18.79,11,29.13,15.43      c10.42,4.3,21.23,7.96,32.28,11c44.32,11.83,91.77,13.81,136.66,5.27c22.39-4.42,44.43-11.11,64.64-21.66      c20.35-10.29,39.03-23.9,55.66-40.33l0.08-0.08c2.96-2.92,7.72-2.89,10.64,0.06c2.59,2.62,2.86,6.67,0.83,9.59      c-14.38,20.69-33.55,38.29-55.16,51.96c-21.64,13.76-45.92,22.89-70.67,28.77c-24.82,5.9-50.31,7.79-75.58,7.15      c-25.31-0.58-50.44-4.27-75.09-10.43c-24.55-6.57-48.88-15.2-71.32-30.32c-11.09-7.68-22.19-16.73-30.45-30.96      c-0.92-1.94-1.8-3.9-2.65-5.87c-0.39-0.94-0.92-2.08-1.17-2.86l-0.73-2.29l-2.89-9.16c-1.66-6.22-3.48-12.38-4.69-18.76      c-5.52-25.2-6.72-52.28-0.77-78.7c5.79-26.4,19.84-51.46,39.38-70.04c19.42-18.77,42.96-31.81,67.12-40.55      c24.22-8.89,49.22-13.82,74.14-16.62c12.47-1.46,24.94-2.16,37.38-2.62c6.22-0.18,12.43-0.16,18.64-0.24l19.13,0.62      c25.54,1.6,50.96,7.04,75,16.1c48.35,17.95,90.07,50.48,122.06,89.26c15.96,19.49,30.16,40.29,41.69,62.42      c5.77,11.07,10.92,22.43,15.3,34.08c4.38,11.72,8.08,23.43,10.52,36.09c0.79,4.1-1.89,8.06-5.99,8.85      c-3.3,0.64-6.52-0.98-8.05-3.78L2521.29,2237.38z"/>
			</g>
		</g>
		<g>
			<g>
				<path class="st24" d="M2466.33,2423.48l-1563.93-0.05c-2.9-0.22-71.45-6.28-110.76-68.25c-37.18-58.59-34.64-144.81,7.53-256.25      c127.35-336.5,463.96-588.11,878.5-656.65c2.42-0.4,4.8-0.28,7.04,0.26c2.23-0.55,4.62-0.66,7.04-0.26      c414.53,68.54,751.15,320.15,878.49,656.65c42.18,111.45,44.71,197.67,7.53,256.25c-39.32,61.97-107.87,68.02-110.76,68.25      L2466.33,2423.48z M1688.31,2388.29h776.5c6.03-0.64,55.15-7.23,83.52-52.37c30.21-48.08,26.41-125.72-11-224.55      c-122.92-324.8-449.13-567.89-851.32-634.38c-0.44-0.07-0.87-0.16-1.3-0.26c-0.42,0.1-0.86,0.19-1.3,0.26      c-402.2,66.49-728.41,309.58-851.33,634.38c-37.4,98.82-41.2,176.47-11,224.55c28.3,45.03,77.24,51.69,83.54,52.37H1688.31z"/>
			</g>
		</g>
		<g>
			<g>
				<g>
					<path class="st28" d="M846.83,1386.63c0.32,0.36,0.63,0.77,0.95,1.13l-1.13-1.26C846.69,1386.54,846.78,1386.59,846.83,1386.63       z"/>
				</g>
			</g>
			<g class="st5">
				<g>
					<path class="st28" d="M2407.66,1384.71c-0.14,0.29-0.27,0.58-0.41,0.87c0.14-0.24,0.23-0.53,0.32-0.77       C2407.61,1384.76,2407.66,1384.76,2407.66,1384.71z"/>
				</g>
			</g>
			<g>
				<g>
					<path class="st0" d="M2586.13,1244.72c-4.09,37.84-77.33,2.06-93.28-6.19c-1.28-0.68-2.66,0.73-2.29,2.37       c1.47,6.52,5.43,21.21,15.44,44.69c12.4,28.98,22.5,51.45,16.93,66.67c-5.99,16.15-30.85,22.41-61.87,18.77       c-17.36-2.06-35.95,13.95-52.51,33.3l-0.05,0.05l-0.14,0.15l-1.1,1.5c0.27-0.44,0.59-0.82,0.87-1.26       c-4.39,5.13-8.6,10.5-12.63,15.82c-3.43,4.55-6.72,9-9.79,13.3c-27.82,33.62-59.22,63.42-93.46,89.74       c-44.18,32.81-92.89,58.71-144.27,79.02l0-0.39c0,0-70.48,27.52-174.72,52.81c0,0-93.16,21.12-178.31,32.8       c0,0-65.18,8.23-136.83,8.31c-71.6,0.07-137.9-8.03-137.9-8.03c-85.13-11.51-178.38-32.44-178.38-32.44       c-104.25-25.07-174.82-52.45-174.82-52.45l0,0.39c-51.42-20.2-100.19-46-144.43-78.72c-34.25-26.26-65.7-55.99-93.59-89.55       c-3.62-5.02-7.48-10.24-11.51-15.5c-3.62-4.68-7.34-9.32-11.19-13.81c0.32,0.48,0.69,0.97,1.01,1.45l-1.24-1.64       c0.05,0.05,0.14,0.1,0.18,0.14c-16.65-19.36-35.31-35.44-52.72-33.34c-31.01,3.7-55.89-2.5-61.91-18.64       c-5.65-15.22,4.45-37.7,16.74-66.71c10.01-23.5,13.93-38.19,15.39-44.72c0.32-1.64-1.01-3.04-2.29-2.37       c-15.93,8.28-89.11,44.21-93.27,6.38c-2.36-20.97,29.83-84.41,40.99-149.37c32.38-188.27,41.78-225.44,41.78-225.44       c0.23-1.26,31.66-136.22,78.74-235.63c-47.27-132.46-78.54-518.9,0.26-599.69c63.25-64.87,301.47,70.88,390.9,165.95       c135.04-59.68,344.57-68.83,375.17-68.81c10.54-0.01,42.24,0.97,84.8,4.75c81.19,7.17,201.87,24.35,290.46,63.3       c89.24-95.25,327.18-231.48,390.6-166.74c78.97,80.63,48.48,467.13,1.48,599.69c29.89,62.75,53.56,139.71,66.94,188.17       c7.82,28.26,12.19,46.82,12.28,47.3c0,0,9.43,37.15,42.19,225.35C2556.09,1160.37,2588.4,1223.74,2586.13,1244.72z"/>
				</g>
			</g>
			<g class="st21">
				<g>
					<path class="st24" d="M2522.93,1352.26c5.57-15.23-4.53-37.69-16.93-66.67c-1.02-2.38-1.93-4.61-2.82-6.81       c-4.84-0.07-9.88-0.34-15.11-0.87c-18.3-1.87-37.93,12.79-55.4,30.47c-0.04,0.05-0.13,0.09-0.18,0.14v0.04       c-0.09,0.09-0.18,0.18-0.27,0.27c-8.33,8.48-16.16,17.64-23.09,25.98c-0.09,0.09-0.18,0.23-0.27,0.32l-0.27,0.32       c-29.35,30.72-62.49,58.01-98.6,82.11c-46.61,30.01-98,53.72-152.19,72.25c0,0-254.51,86.19-517.91,86.46       c-263.39,0.27-518.08-85.41-518.08-85.41c-54.23-18.42-105.67-42.03-152.34-71.95c-36.16-24.03-69.31-51.26-98.73-81.91       c-0.05-0.09-0.13-0.13-0.23-0.23c-7.08-8.51-15.16-17.92-23.73-26.61l-0.05-0.04c-0.04-0.04-0.13-0.09-0.18-0.14       c-11.53-11.66-24-21.93-36.39-27.06c-0.6,1.46-1.16,2.85-1.81,4.38c-12.29,29.01-22.4,51.49-16.75,66.71       c0.26,0.7,0.6,1.35,0.93,2.02c13.16-0.78,26.94,6.68,40.13,17.57c6.5,0.24,13.49-0.06,20.85-0.94       c17.4-2.1,36.07,13.98,52.71,33.34c-0.04-0.05-0.14-0.1-0.18-0.14l1.24,1.64c-0.32-0.48-0.69-0.97-1.01-1.45       c3.85,4.49,7.57,9.13,11.19,13.81c4.04,5.26,7.89,10.48,11.51,15.5c27.89,33.56,59.35,63.3,93.59,89.55       c1.32,0.97,2.67,1.88,4,2.84c30.45,15.29,62.35,28.43,95.3,39.62c0,0,254.69,85.68,518.08,85.41       c263.39-0.27,517.91-86.46,517.91-86.46c54.19-18.53,105.58-42.24,152.19-72.3c26.03-17.34,50.48-36.38,73.11-57.17       c0.84-1,1.7-1.97,2.53-2.97c3.06-4.3,6.36-8.75,9.79-13.3c4.03-5.32,8.24-10.69,12.63-15.82c-0.27,0.44-0.6,0.82-0.87,1.26       l1.1-1.5l0.14-0.15l0.05-0.05c11.31-13.21,23.55-24.85,35.71-30.26c14.32-12.4,29.52-21.13,43.89-19.7       c12.49,1.28,24.02,1.23,33.87-0.14C2522.34,1353.59,2522.68,1352.95,2522.93,1352.26z"/>
				</g>
			</g>
			<g>
				<g>
					<path class="st25" d="M2490.34,822.78c-26.98,3.56-54.46,5.37-82.32,5.4c-364.11,0.37-660.37-307.32-667.17-689.82       c81.19,7.17,201.87,24.35,290.46,63.3c89.24-95.25,327.18-231.48,390.6-166.74c78.97,80.63,48.48,467.13,1.48,599.69       C2453.29,697.36,2476.96,774.32,2490.34,822.78z"/>
				</g>
			</g>
			<g class="st26">
				<g>
					<path class="st0" d="M2421.9,34.94c8.31,8.49,15.44,20.36,21.42,35.01c-72.44-59.02-315.49,81.02-407.76,179.54       c-88.54-38.97-207.42-57.22-292.48-65.49c-1.19-15.09-1.94-30.3-2.2-45.65c81.15,7.17,201.84,24.37,290.46,63.33       C2120.53,106.41,2358.48-29.81,2421.9,34.94z"/>
				</g>
			</g>
			<g>
				<g>
					<path class="st28" d="M863.49,1317.64c0.42,0.57,0.84,1.15,1.25,1.67l-1.46-1.82C863.33,1317.54,863.43,1317.59,863.49,1317.64       z"/>
				</g>
			</g>
			<g>
				<g>
					<path class="st28" d="M2448.08,1316.04c0.05-0.05,0.16-0.1,0.21-0.16l-1.46,1.83       C2447.24,1317.18,2447.66,1316.61,2448.08,1316.04z"/>
				</g>
			</g>
			<g>
				<g>
					<path class="st29" d="M1066.49,373.19C1004.08,440.15,964.9,533.7,959.3,522.8c-0.55-1.04-1.09-2.29-1.64-3.76       c-11.95-30.57-31.91-151.82-31.97-259.89c0.03-17.43,0.46-32.82,1.34-46.39c2.34-36.63,7.51-60.12,13.87-75.16       c7.9-18.38,25.7-24.03,41.48-17.89c41.96,16.4,161.21,94.55,200.09,144.71C1189.42,273.34,1128.95,306.22,1066.49,373.19z"/>
				</g>
			</g>
			<g class="st21">
				<g>
					<path class="st24" d="M1066.49,373.19C1004.08,440.15,964.9,533.7,959.3,522.8c-0.55-1.04-1.09-2.29-1.64-3.76       c13.84-56.74,52.1-135.15,81.43-191.86c40.09-77.43-15.38-138.84-63.43-157.16c-16.48-6.3-35.99,20.81-48.63,42.74       c2.34-36.63,7.51-60.12,13.87-75.16c7.9-18.38,25.7-24.03,41.48-17.89c41.96,16.4,161.21,94.55,200.09,144.71       C1189.42,273.34,1128.95,306.22,1066.49,373.19z"/>
				</g>
			</g>
			<g>
				<g>
					<path class="st24" d="M960.75,541.26c-0.28,0-0.56,0-0.84-0.01c-6.94-0.22-13.02-4.11-16.26-10.42       c-14-27.26-35.49-159.81-35.52-271.66l0,0c-0.02-60.1,5.42-102.12,16.61-128.44c11.15-26.01,38.08-37.5,64.04-27.38       c42.98,16.75,166.23,96.89,207.64,150.28c4.46,5.74,9.41,17.82-7.44,34.15c-5.81,5.63-14.25,12.4-24.93,20.97       c-22.41,17.98-53.1,42.59-84.65,76.44c-34.75,37.28-62.35,83.64-80.62,114.31C979.87,531.23,973.89,541.26,960.75,541.26z        M974.94,514.75h0.05H974.94z M969.91,134.96c-4.25,0-9.5,1.85-12.81,9.59c-9.16,21.53-13.8,60.11-13.79,114.62l0,0       c0.02,88.36,12.91,179.2,23.13,225.85c0.7-1.18,1.4-2.36,2.09-3.52c19.03-31.97,47.8-80.27,85.11-120.3       c33.29-35.71,66.44-62.3,88.37-79.9c6.59-5.28,13.72-11,18.75-15.39c-43.74-48.17-148.22-115.53-184.78-129.78       C974.81,135.67,972.55,134.96,969.91,134.96z"/>
				</g>
			</g>
			<g>
				<g>
					<path class="st29" d="M2241.17,372c62.54,66.84,101.92,160.31,107.49,149.4c0.54-1.04,1.09-2.3,1.63-3.76       c11.89-30.59,31.6-151.88,31.45-259.96c-0.07-17.43-0.53-32.82-1.43-46.39c-2.41-36.63-7.63-60.11-14.03-75.13       c-7.93-18.36-25.75-23.98-41.52-17.8c-41.93,16.48-161.02,94.88-199.8,145.12C2118.05,272.4,2178.58,305.16,2241.17,372z"/>
				</g>
			</g>
			<g class="st21">
				<g>
					<path class="st24" d="M2241.17,372c62.54,66.84,101.92,160.31,107.49,149.4c0.54-1.04,1.09-2.3,1.63-3.76       c-13.96-56.71-52.37-135.05-81.81-191.69c-40.25-77.35,15.09-138.87,63.11-157.29c16.47-6.33,36.03,20.73,48.72,42.64       c-2.41-36.63-7.63-60.11-14.03-75.13c-7.93-18.36-25.75-23.98-41.52-17.8c-41.93,16.48-161.02,94.88-199.8,145.12       C2118.05,272.4,2178.58,305.16,2241.17,372z"/>
				</g>
			</g>
			<g>
				<g>
					<path class="st24" d="M2347.2,539.86c-13.11,0-19.11-10.04-38.05-41.69c-18.33-30.64-46.04-76.94-80.85-114.14       c-31.62-33.78-62.35-58.33-84.8-76.26c-10.7-8.55-19.16-15.31-24.98-20.92c-16.89-16.3-11.95-28.39-7.5-34.14       c41.29-53.46,164.38-133.85,207.33-150.7c25.92-10.17,52.89,1.26,64.07,27.2c11.26,26.35,16.78,68.36,16.89,128.45l0,0       c0.2,111.84-21.02,244.44-34.97,271.73c-3.23,6.32-9.3,10.22-16.24,10.45C2347.8,539.85,2347.5,539.86,2347.2,539.86z        M2146.68,264.92c5.04,4.37,12.18,10.08,18.78,15.35c21.97,17.55,55.17,44.07,88.53,79.71       c37.39,39.95,66.25,88.19,85.35,120.12c0.69,1.16,1.4,2.34,2.1,3.52c10.12-46.67,22.83-137.55,22.67-225.9l0,0       c-0.09-54.5-4.82-93.07-14.04-114.64c-5.39-12.5-15.83-9.53-18.89-8.33C2294.67,149.08,2190.32,216.65,2146.68,264.92z"/>
				</g>
			</g>
			<g>
				<g>
					<path class="st24" d="M1637.34,1706.11c-99.86,0-199.65-10.81-296.66-32.14l-2.78-0.62c-69.24-16.67-123.32-34.14-152.78-44.36       v0.74l-24.68-9.3c-55.21-21.66-105.2-48.91-148.58-81c-35.54-27.22-67.42-57.57-95.01-90.43l-0.02-0.01l-1.05-1.27       c-0.22-0.27-0.45-0.55-0.68-0.82l-0.78-0.95c-7.78-9.39-14.79-18.43-21.37-27.52c-16.62-19.46-29.14-28.8-37.26-27.85       c-41.83,5-72.1-6.34-81.01-30.3c-7.92-21.33,2.45-45.7,15.58-76.55l1.5-3.52c1.24-2.92,2.38-5.69,3.42-8.31       c-24.51,9.16-49.73,13.88-66.68,4.84c-10.4-5.55-16.89-15.55-18.28-28.16c-1.56-14.11,5.13-33.54,15.25-62.94       c9.08-26.36,20.37-59.17,25.92-91.48c32.12-186.82,41.65-225.28,42.04-226.82l0.01,0c3.22-13.88,32.77-136.56,76.79-232.24       c-42.99-130.82-81.46-520.81,6.79-611.28c14.74-15.11,36.07-22.58,64.08-22.39c102.19,0.93,268.95,105.29,344.06,179.5       c149.85-61.51,368.67-65.43,370.87-65.43l0,0c0,0,0,0,0,0c2.41,0,221.04,3.49,370.96,64.68       c74.97-74.37,241.52-179.07,343.7-180.2c27.78-0.21,49.36,7.19,64.12,22.26c88.43,90.3,50.76,480.36,8.03,611.27       c44,95.17,74.03,218.33,77.26,232.08l0.01,0c0.4,1.55,10,39.98,42.5,226.73c5.62,32.3,16.98,65.09,26.11,91.43       c10.19,29.38,16.91,48.8,15.38,62.92c-1.36,12.61-7.84,22.62-18.23,28.19c-16.92,9.07-42.16,4.4-66.68-4.71       c1.05,2.62,2.19,5.38,3.44,8.3l1.51,3.54c13.18,30.82,23.59,55.17,15.72,76.5c-8.86,23.98-39.11,35.38-80.94,30.47       c-8.12-0.94-20.61,8.41-37.19,27.92c-6.7,9.31-13.89,18.59-21.92,28.3l-2.21,2.65c-27.5,32.83-59.2,63.11-94.32,90.12       c-43.54,32.35-93.48,59.71-148.65,81.48l-24.72,9.76v-1.13c-29.43,10.28-83.39,27.82-152.38,44.58l-3.05,0.68       c-97.39,21.62-197.64,32.63-297.94,32.74l-37.85,0.04C1638.26,1706.11,1637.79,1706.11,1637.34,1706.11z M1638.69,1688.03h0.05       H1638.69z M1161.42,1581.85l12.16,4.53c0.69,0.27,70.8,27.27,172.52,51.76l2.33,0.51c94.47,20.77,191.67,31.3,288.91,31.3       c0.44,0,0.89,0,1.33,0l37.85-0.04c97.69-0.1,195.31-10.83,290.16-31.88l2.64-0.59c101.38-24.63,171.43-51.78,172.12-52.05       l18.06-7.05c45.04-19.26,86.01-42.5,122-69.24c33.33-25.63,63.54-54.59,89.57-85.89l1.87-2.96l0.55-0.31       c6.74-9.27,13.8-18.58,21.15-27.2l1.07-1.25c20.23-23.42,42.69-41.38,67.44-38.44c27.23,3.17,41.31-3.04,42.81-7.08       c2.89-7.83-6.64-30.11-15.05-49.76l-1.52-3.55c-10.54-24.68-14.84-40.56-16.46-47.83c-1.72-7.7,1.16-15.74,7.33-20.49       c6-4.62,14.21-5.34,20.92-1.86c33.95,17.6,59.95,23.23,66.91,20.84c0.02-0.15,0.05-0.32,0.07-0.53       c0.59-6.26-7.28-28.95-13.6-47.19c-9.55-27.57-21.45-61.88-27.57-97.06c-32.03-184.08-41.83-223.66-41.92-224.04l-0.19-0.83       c-1.36-5.83-32.03-135.13-77.82-231.28l-3.22-6.76l2.5-7.06c45.28-127.74,73.84-508.31,2.64-581.02       c-7.42-7.57-19.74-11.41-36.63-11.41c-0.42,0-0.83,0-1.25,0.01c-85.52,0.94-253.86,100.25-326.58,177.87l-8.75,9.34       l-11.72-5.15c-124.79-54.86-323.63-66.53-367.47-66.53c-0.18,0-0.28,0-0.53,0c-42.85,0-242.72,11.97-367.87,67.28l-11.71,5.18       l-8.77-9.32c-72.87-77.47-241.41-176.44-326.93-177.21c-17.7-0.15-30.28,3.7-37.86,11.47       c-71.05,72.86-41.73,453.36,3.81,581.01l2.51,7.05l-3.2,6.77c-45.58,96.2-75.89,225.12-77.34,231.4l-0.21,0.89       c-0.09,0.35-9.8,39.96-41.46,224.11c-6.05,35.19-17.87,69.53-27.37,97.12c-6.28,18.24-14.1,40.95-13.5,47.21       c0.02,0.2,0.05,0.37,0.07,0.52c6.98,2.4,32.97-3.31,66.88-20.97c6.71-3.49,14.91-2.78,20.92,1.82       c6.18,4.73,9.07,12.76,7.38,20.46c-1.62,7.31-5.89,23.2-16.37,47.89l-1.51,3.54c-8.37,19.68-17.86,41.98-14.95,49.81       c1.5,4.03,15.61,10.22,42.83,6.98c24.69-2.9,47.23,14.92,67.51,38.29l0.95,1.1c7.48,8.72,14.65,18.14,21.5,27.53l0.51,0.31       l1.74,2.72c26.04,31.2,56.35,60.13,90,85.9C1071.01,1538.22,1114.02,1562.22,1161.42,1581.85z"/>
				</g>
			</g>
			<g>
				<g>
					<path class="st24" d="M1236.54,623.35c-8.61-13.33,59.91-161.25,168.09-129.74c39.63,11.54,33.17,46.51,10.34,57.65       c-21.73,10.61-55.45,9.99-83.33,21.79C1277.27,596.04,1245.15,636.67,1236.54,623.35z"/>
				</g>
			</g>
			<g>
				<g>
					<path class="st24" d="M2074.74,603.27c8.58-13.34-60.24-161.13-168.35-129.4c-39.6,11.62-33.07,46.58-10.23,57.67       c21.75,10.56,55.47,9.88,83.38,21.62C2033.95,576.04,2066.16,616.61,2074.74,603.27z"/>
				</g>
			</g>
			<g>
				<g>
					
						<ellipse transform="matrix(1 -1.013613e-03 1.013613e-03 1 -1.3107 2.12)" class="st30" cx="2090.86" cy="1294.16" rx="91.12" ry="43.74"/>
				</g>
			</g>
			<g>
				<g>
					
						<ellipse transform="matrix(1 -1.013613e-03 1.013613e-03 1 -1.312 1.2515)" class="st30" cx="1233.99" cy="1295.03" rx="91.12" ry="43.74"/>
				</g>
			</g>
			<g>
				<g>
					<path class="st0" d="M1519.1,1226.78c0,0,23.98,62.72,79.96,48.18c63.72-16.55,55.98-92.55,55.98-92.55L1519.1,1226.78z"/>
				</g>
			</g>
			<g>
				<g>
					<path class="st0" d="M1793.42,1226.5c0,0-23.85,62.77-79.86,48.34c-63.75-16.42-56.17-92.44-56.17-92.44L1793.42,1226.5z"/>
				</g>
			</g>
			<g class="st21">
				<g>
					<path class="st24" d="M1793.45,1252.23c0,0-23.85,62.77-79.86,48.34c-63.75-16.42-55.13-47.1-57.89-47.1       c-2.76,0,7.09,30.66-56.63,47.21c-55.98,14.54-79.96-48.18-79.96-48.18s-1.3-155.49,136.44-155.63       C1793.29,1096.74,1793.45,1252.23,1793.45,1252.23z"/>
				</g>
			</g>
			<g>
				<g>
					<path class="st0" d="M1793.42,1226.5c0,0-23.85,62.77-79.86,48.34c-63.75-16.42-56.17-92.44-56.17-92.44l-2.36,0       c0,0,7.74,76-55.98,92.55c-55.98,14.54-79.96-48.18-79.96-48.18s-1.3-155.49,136.44-155.63S1793.42,1226.5,1793.42,1226.5z"/>
				</g>
			</g>
			<g class="st21">
				<g>
					<path class="st24" d="M1788.44,1236.73c-9.6,17.17-33.44,48.8-74.87,38.11c-63.76-16.42-56.2-92.44-56.2-92.44l-2.32,0       c0,0,7.71,76.01-56.01,92.55c-41.41,10.77-65.31-20.81-74.95-37.96c14.36,5.59,31.42,7.36,51.37,2.17       c89.91-23.34,79.03-130.61,79.03-130.61l3.29,0c0,0-10.67,107.3,79.29,130.45C1757.04,1244.16,1774.1,1242.35,1788.44,1236.73z       "/>
				</g>
			</g>
			<g>
				<g>
					<path class="st24" d="M1527.31,1223.64c8.32,13.84,19.73,27.53,32.65,34.27c6.43,3.55,13.22,5.28,20.19,5.8       c3.57-0.31,7.08,0.08,10.73-0.95c1.8-0.43,3.63-0.56,5.44-1.08l5.43-1.81c14.51-4.79,25.52-15.07,32.9-28.93       c3.72-6.89,6.36-14.71,8.24-22.83c1.88-8,3.06-16.92,3.39-24.81l0.03-0.71c0.21-4.86,4.31-8.63,9.16-8.42       c4.24,0.18,7.64,3.33,8.31,7.35c0.9,5.45,1.25,10.09,1.35,15.15c0.13,4.97-0.12,9.96-0.66,14.95       c-1.15,9.96-3.25,20.1-7.61,29.75c-7.9,19.41-25.3,36.89-45.85,43.71l-7.63,2.61c-2.58,0.78-5.36,1.14-8.05,1.64       c-5.31,1.25-11.1,0.94-16.68,1.04c-11.39-0.82-22.5-4.79-31.8-10.72c-9.3-6.02-16.79-13.81-22.65-22.24       c-5.84-8.62-10.27-17.22-13.33-27.5c-1.39-4.66,1.26-9.56,5.92-10.95c3.93-1.17,8.03,0.53,10.05,3.89L1527.31,1223.64z"/>
				</g>
			</g>
			<g>
				<g>
					<path class="st24" d="M1801.65,1229.63c-3.04,10.28-7.46,18.9-13.28,27.53c-5.84,8.44-13.31,16.24-22.6,22.28       c-9.29,5.95-20.39,9.94-31.78,10.78c-5.58-0.09-11.36,0.23-16.68-1.01c-2.69-0.5-5.47-0.85-8.05-1.63l-7.63-2.6       c-20.57-6.78-38-24.22-45.94-43.61c-4.37-9.64-6.5-19.78-7.67-29.73c-0.55-5-0.81-9.98-0.69-14.95       c0.09-5.07,0.42-9.71,1.32-15.16c0.78-4.8,5.31-8.05,10.1-7.26c4.18,0.69,7.19,4.22,7.37,8.29l0.03,0.72       c0.35,7.88,1.54,16.8,3.44,24.8c1.9,8.12,4.56,15.93,8.29,22.82c7.41,13.85,18.44,24.11,32.96,28.87l5.43,1.79       c1.81,0.52,3.65,0.64,5.45,1.07c3.65,1.03,7.16,0.63,10.73,0.93c6.97-0.53,13.75-2.28,20.18-5.84       c12.91-6.77,24.3-20.48,32.59-34.34l0.46-0.76c2.5-4.17,7.9-5.53,12.07-3.03C1801.25,1221.69,1802.76,1225.87,1801.65,1229.63z       "/>
				</g>
			</g>
			<g>
				<g>
					<path class="st24" d="M1732.95,1142.49c0.02,17.98-23.42,33.89-44.94,44.7c-22.51,11.31-47.74,11.34-70.27,0.07       c-21.54-10.77-45.01-26.63-45.03-44.61C1572.66,1088.42,1732.89,1088.26,1732.95,1142.49z"/>
				</g>
			</g>
			<g class="st7">
				<g>
					<path class="st0" d="M1684.59,1131.9c0.01,5.18-9.29,9.77-17.82,12.89c-8.93,3.26-18.93,3.27-27.86,0.03       c-8.54-3.1-17.84-7.67-17.85-12.86C1621.04,1116.33,1684.57,1116.26,1684.59,1131.9z"/>
				</g>
			</g>
			<g>
				<g>
					<path class="st24" d="M1981.83,817.41c68.47-11.64,132.32,64.99,142.62,171.15c10.3,106.16-36.85,201.66-105.32,213.29       c-68.46,11.64-132.32-64.99-142.62-171.15C1866.21,924.54,1913.36,829.04,1981.83,817.41z"/>
				</g>
			</g>
			<g>
				<g>
					<path class="st0" d="M1986.97,861.83c21.91,8.46,31.57,44.22,21.59,79.88c-9.98,35.66-35.83,57.71-57.74,49.25       c-21.9-8.46-31.57-44.22-21.59-79.87C1939.21,875.42,1965.06,853.37,1986.97,861.83z"/>
				</g>
			</g>
			<g>
				<g>
					<path class="st31" d="M2062.12,1086.85c10.4,7.58,11.8,27.54,3.14,44.57c-8.66,17.03-24.12,24.7-34.51,17.11       c-10.4-7.58-11.8-27.53-3.13-44.57C2036.27,1086.94,2051.72,1079.28,2062.12,1086.85z"/>
				</g>
			</g>
			<g>
				<g>
					<path class="st24" d="M1327.08,817.41c-68.47-11.64-132.32,64.99-142.62,171.15c-10.3,106.16,36.85,201.66,105.32,213.29       c68.46,11.64,132.32-64.99,142.62-171.15C1442.7,924.54,1395.54,829.04,1327.08,817.41z"/>
				</g>
			</g>
			<g>
				<g>
					<path class="st0" d="M1321.94,861.83c-21.91,8.46-31.57,44.22-21.59,79.88c9.98,35.66,35.83,57.71,57.74,49.25       c21.9-8.46,31.57-44.22,21.59-79.87C1369.69,875.42,1343.84,853.37,1321.94,861.83z"/>
				</g>
			</g>
			<g>
				<g>
					<path class="st31" d="M1246.79,1086.85c-10.4,7.58-11.8,27.54-3.14,44.57c8.66,17.03,24.12,24.7,34.51,17.11       c10.4-7.58,11.8-27.53,3.13-44.57C1272.64,1086.94,1257.18,1079.28,1246.79,1086.85z"/>
				</g>
			</g>
			<g class="st5">
				<g>
					<path class="st32" d="M1343.54,1244.96h-144.69c-97.62,0-177.48-79.87-177.48-177.48v-86.25c0-45.53,36.91-82.43,82.43-82.43       h334.79c45.53,0,82.43,36.91,82.43,82.43v86.25C1521.02,1165.09,1441.15,1244.96,1343.54,1244.96z"/>
				</g>
			</g>
			<g class="st5">
				<g>
					<path class="st32" d="M2106.8,1244.96h-144.69c-97.62,0-177.48-79.87-177.48-177.48v-86.25c0-45.53,36.91-82.43,82.43-82.43       h334.79c45.53,0,82.43,36.91,82.43,82.43v86.25C2284.28,1165.09,2204.41,1244.96,2106.8,1244.96z"/>
				</g>
			</g>
			<g>
				<g>
					<path class="st24" d="M1343.54,1263.04h-144.69c-107.83,0-195.57-87.73-195.57-195.56v-86.25       c0-55.42,45.09-100.51,100.52-100.51h334.79c55.42,0,100.51,45.09,100.51,100.51v86.25       C1539.1,1175.31,1451.37,1263.04,1343.54,1263.04z M1103.8,916.87c-35.49,0-64.36,28.87-64.36,64.36v86.25       c0,87.9,71.51,159.4,159.4,159.4h144.69c87.9,0,159.4-71.51,159.4-159.4v-86.25c0-35.49-28.87-64.36-64.35-64.36H1103.8z"/>
				</g>
			</g>
			<g>
				<g>
					<path class="st24" d="M2106.8,1263.04h-144.69c-107.83,0-195.57-87.73-195.57-195.56v-86.25       c0-55.42,45.09-100.51,100.52-100.51h334.79c55.42,0,100.51,45.09,100.51,100.51v86.25       C2302.36,1175.31,2214.63,1263.04,2106.8,1263.04z M1867.06,916.87c-35.49,0-64.36,28.87-64.36,64.36v86.25       c0,87.9,71.51,159.4,159.4,159.4h144.69c87.9,0,159.4-71.51,159.4-159.4v-86.25c0-35.49-28.87-64.36-64.35-64.36H1867.06z"/>
				</g>
			</g>
			<g>
				<g>
					<path class="st24" d="M1521,1038.34c-2.91,0-5.85-0.7-8.59-2.19c-8.78-4.75-12.05-15.73-7.29-24.51       c1.74-3.22,43.91-78.94,145.87-78.94c101.48,0,147.28,75.11,149.18,78.31c5.1,8.58,2.28,19.68-6.31,24.78       c-8.58,5.1-19.68,2.28-24.78-6.31c-1.46-2.41-37.73-60.62-118.1-60.62c-80.65,0-113.75,59.4-114.07,60       C1533.64,1034.91,1527.42,1038.34,1521,1038.34z"/>
				</g>
			</g>
		</g>
		<g>
			<g>
				<path class="st24" d="M984.71,2420.88c-2.16,0-4.36-0.47-6.44-1.46c-40.41-19.25-68.12-49.8-82.38-90.81      c-37.66-108.37,32.13-252.32,35.12-258.39c3.66-7.43,12.63-10.51,20.07-6.84c7.43,3.65,10.49,12.64,6.85,20.07      c-0.68,1.38-67.25,138.9-33.68,235.37c11.52,33.12,34.04,57.85,66.91,73.52c7.48,3.56,10.65,12.51,7.09,19.99      C995.69,2417.72,990.32,2420.88,984.71,2420.88z"/>
			</g>
		</g>
		<g>
			<g>
				<path class="st24" d="M2383.37,2420.88c-5.61,0-10.98-3.15-13.55-8.55c-3.56-7.48-0.39-16.43,7.09-19.99      c32.9-15.67,55.42-40.43,66.93-73.58c33.59-96.66-33.02-233.93-33.69-235.3c-3.66-7.43-0.6-16.42,6.84-20.08      c7.42-3.66,16.42-0.6,20.08,6.84c2.99,6.07,72.78,150.02,35.12,258.39c-14.25,41.01-41.96,71.56-82.37,90.81      C2387.73,2420.4,2385.54,2420.88,2383.37,2420.88z"/>
			</g>
		</g>
		<g>
			<g>
				<path class="st33" d="M2842.62,2456.09v6.77c0,27.71-21.17,50.18-47.32,50.18H459.46c-26.15,0-47.32-22.47-47.32-50.18v-6.77      c0-27.71,21.17-50.18,47.32-50.18H2795.3C2821.46,2405.91,2842.62,2428.38,2842.62,2456.09z"/>
			</g>
		</g>
		<g class="st21">
			<g>
				<path class="st24" d="M2842.62,2456.05v6.82c0,27.72-21.2,50.18-47.36,50.18H459.46c-26.13,0-47.32-22.45-47.32-50.14v-3.43      h1692.72c53.6,0,105.68-18.84,148.09-53.57l0,0h542.35C2821.44,2405.91,2842.62,2428.35,2842.62,2456.05z"/>
			</g>
		</g>
		<g>
			<g>
				<path class="st24" d="M2793.9,2530.12H460.85c-36.29,0-65.82-29.53-65.82-65.82v-9.65c0-36.3,29.53-65.83,65.82-65.83H2793.9      c36.29,0,65.82,29.53,65.82,65.83v9.65C2859.72,2500.59,2830.2,2530.12,2793.9,2530.12z M460.85,2423      c-17.45,0-31.64,14.2-31.64,31.65v9.65c0,17.45,14.19,31.64,31.64,31.64H2793.9c17.45,0,31.64-14.19,31.64-31.64v-9.65      c0-17.45-14.19-31.65-31.64-31.65H460.85z"/>
			</g>
		</g>
		<g class="st7">
			<g>
				<path class="st0" d="M2776.48,2421.78H857.52H696.86H478.28c-25.67,0-46.55,16.91-46.55,37.69c0,15.23,11.24,28.35,27.34,34.29      c-4.88-5.96-7.74-13.09-7.74-20.76c0-20.78,20.88-37.69,46.55-37.69h196.87c10.19,9.15,43.2,15.87,82.44,15.87      c39.24,0,72.25-6.72,82.44-15.87h1936.45c6.86,0,13.35,1.24,19.21,3.4C2806.95,2428.52,2792.68,2421.78,2776.48,2421.78z"/>
			</g>
		</g>
		<g>
			<g>
				<path class="st28" d="M863.57,1408.97c0.19,0.38,0.42,0.7,0.61,1.08l-0.8-1.31C863.47,1408.83,863.52,1408.87,863.57,1408.97z"/>
			</g>
		</g>
		<g>
			<g>
				<path class="st28" d="M863.52,1397.02c0.14,0.15,0.28,0.31,0.38,0.41c0.19,0.26,0.38,0.51,0.56,0.77L863.52,1397.02z"/>
			</g>
		</g>
		<g>
			<g>
				<path class="st0" d="M928.83,1435.17c-7.38-8.93-14.59-18.16-21.51-27.67L928.83,1435.17z"/>
			</g>
		</g>
		<g>
			<g>
				<path class="st0" d="M2385.91,1433.69l21.37-27.66C2400.46,1415.55,2393.28,1424.74,2385.91,1433.69z"/>
			</g>
		</g>
		<g>
			<g>
				<path class="st34" d="M2265.66,2405.91H1044.07c-20.83,0-37.71-16.88-37.71-37.71v-15.28c0-12,9.73-21.73,21.73-21.73h1253.55      c12,0,21.73,9.73,21.73,21.73v15.28C2303.37,2389.02,2286.48,2405.91,2265.66,2405.91z"/>
			</g>
		</g>
		<g class="st21">
			<g>
				<path class="st0" d="M2303.35,2358.5c0,5.18-1.21,10.15-3.42,14.82c-6.1-9.55-19.81-16.18-35.77-16.18H1045.59      c-10.81,0-20.63,3.04-27.73,8.01c-3.37,2.35-6.14,5.09-8.09,8.17c-2.21-4.67-3.42-9.64-3.42-14.82      c0-7.53,4.37-14.37,11.51-19.31c7.09-4.97,16.91-8.01,27.73-8.01h1218.57C2285.83,2331.18,2303.35,2343.41,2303.35,2358.5z"/>
			</g>
		</g>
		<g class="st21">
			<g>
				<path class="st24" d="M2303.35,2358.5c0,13.08-7.61,24.95-19.94,33.5c-12.28,8.59-29.33,13.89-48.1,13.89H1074.44      c-37.59,0-68.09-21.21-68.09-47.39c0-5.03,1.95-9.76,5.41-13.83c10.29,16.96,34.52,28.89,62.68,28.89h1160.87      c18.77,0,35.82-5.3,48.1-13.89c6.14-4.28,11.12-9.37,14.53-15C2301.41,2348.74,2303.35,2353.47,2303.35,2358.5z"/>
			</g>
		</g>
		<g>
			<g>
				<path class="st24" d="M2265.65,2420.91H1044.07c-29.06,0-52.71-23.65-52.71-52.71v-15.28c0-20.25,16.47-36.73,36.73-36.73      h1253.55c20.25,0,36.73,16.47,36.73,36.73v15.28C2318.37,2397.26,2294.72,2420.91,2265.65,2420.91z M1028.09,2346.19      c-3.71,0-6.73,3.02-6.73,6.73v15.28c0,12.52,10.19,22.71,22.71,22.71h1221.58c12.52,0,22.71-10.19,22.71-22.71v-15.28      c0-3.71-3.02-6.73-6.73-6.73H1028.09z"/>
			</g>
		</g>
		<g>
			<g>
				<path class="st35" d="M2371.13,1564.5l-113.55,766.24H1052.17l-4.11-27.73L938.57,1564.5c-3.59-24.27,15.23-46.02,39.71-46.02      h1353.14C2355.95,1518.47,2374.72,1540.23,2371.13,1564.5z"/>
			</g>
		</g>
		<g>
			<g>
				<path class="st34" d="M2371.13,1564.5l-113.55,766.24H1052.17l-4.11-27.73L938.57,1564.5c-3.59-24.27,15.23-46.02,39.71-46.02      h1353.14C2355.95,1518.47,2374.72,1540.23,2371.13,1564.5z"/>
			</g>
		</g>
		<g class="st21">
			<g>
				<path class="st24" d="M2321.81,1628.75l-109.31,701.99H1052.01l-3.96-25.4c107.48-4.04,613.72-2.9,894.63-182.05      c223.77-142.71,242.91-415.77,208.22-536.7h132.68C2307.2,1586.59,2325.27,1606.52,2321.81,1628.75z"/>
			</g>
		</g>
		<g>
			<g>
				<path class="st24" d="M2270.51,2345.76H1039.22l-115.47-779.08c-2.35-15.87,2.31-31.94,12.79-44.09      c10.48-12.15,25.7-19.12,41.74-19.12h1353.16c16.04,0,31.26,6.97,41.74,19.12c10.48,12.15,15.15,28.22,12.79,44.09      L2270.51,2345.76z M1065.1,2315.76h1179.53l111.67-753.47c1.07-7.24-1.05-14.57-5.83-20.1c-4.78-5.54-11.71-8.72-19.03-8.72      H978.29c-7.31,0-14.25,3.18-19.03,8.72c-4.78,5.54-6.9,12.87-5.83,20.1L1065.1,2315.76z"/>
			</g>
		</g>
		<g class="st21">
			<g>
				<path class="st0" d="M1119.58,2180.25c-45.73-100.8-79.03-272.86-71.52-374.13s66.23-70.28,84.44,59.44      C1180.94,2210.77,1140,2225.26,1119.58,2180.25z"/>
			</g>
		</g>
		<g>
			<g>
				<path class="st0" d="M1800.08,1968.3c-8.26-20.98-11.21-42.53-6.7-64.85c2.46-12.17,6.74-23.69,12.02-34.88      c1.05-2.22,0.72-3.91-0.9-4.92c-1.84-1.15-3.37-0.51-4.77,0.91c-2.66,2.69-5.35,5.35-8.02,8.03      c-12.99,13.09-24.67,27.36-36.84,41.18c-2.7,3.06-5.36,4.68-9.46,4.12c-1.5-0.2-1.98-0.51-2.23-2.01      c-1.65-9.68-5.02-18.7-10.54-26.87c-1.49-2.21-3.36-2.88-5.23-1.96c-1.81,0.88-2.42,2.67-1.69,5.14      c2.27,7.69,3.75,15.52,4.42,23.51c0.14,1.61-0.03,2.2-1.85,2.16c-5.42-0.13-10.85-0.11-16.28-0.01      c-1.6,0.03-2.12-0.36-2.25-2.06c-0.98-11.84-3.87-23.18-9.36-33.79c-3.04-5.87-6.82-11.21-11.51-15.88      c-1.6-1.59-3.43-1.8-5.02-0.68c-1.63,1.14-2.01,3.1-0.99,5.15c0.19,0.38,0.42,0.74,0.63,1.12c7.35,14.02,11.61,28.93,12.89,44.7      c0.1,1.22-0.31,1.42-1.37,1.41c-5.78-0.03-11.57-0.06-17.36,0.01c-1.35,0.02-1.61-0.45-1.71-1.7      c-1.07-13.04-4.03-25.63-9.38-37.59c-4.7-10.51-10.94-19.87-20.55-26.6c-2.12-1.49-4-1.48-5.43-0.06      c-1.52,1.52-1.5,3.34,0.12,5.57c12.74,17.49,20.01,37.01,21.81,58.59c0.12,1.47-0.21,1.8-1.62,1.79      c-5.64-0.07-11.28-0.08-16.92,0c-1.39,0.02-1.77-0.39-1.89-1.77c-1.14-13.55-4.42-26.56-10.29-38.86      c-4.31-9.05-9.92-17.16-17.73-23.59c-0.44-0.36-0.89-0.72-1.35-1.06c-2.24-1.7-4.27-1.79-5.75-0.26      c-1.45,1.49-1.38,3.38,0.24,5.61c12.61,17.41,19.7,36.85,21.51,58.25c0.12,1.38-0.23,1.69-1.56,1.68      c-5.57-0.07-11.14-0.1-16.71,0.01c-1.67,0.03-2.08-0.47-2.24-2.1c-1.51-15.6-5.74-30.37-13.93-43.85      c-3.4-5.59-7.49-10.61-12.49-14.85c-1.67-1.42-3.6-1.41-5.06-0.15c-1.46,1.26-1.68,3.15-0.57,5.03      c0.33,0.55,0.71,1.07,1.05,1.61c10.27,16.06,16.07,33.62,17.67,52.6c0.11,1.32-0.15,1.73-1.53,1.71c-4.5-0.08-9-0.01-13.5-0.03      c-1.7,0-3.95,0.54-4.96-0.32c-0.97-0.84-0.68-3.16-0.93-4.84c-2.18-14.67-6.88-28.37-15.52-40.57      c-1.53-2.16-3.19-4.22-5.05-6.09c-1.47-1.47-3.31-1.63-4.86-0.56c-1.56,1.08-2.01,2.85-1.18,4.74c0.2,0.45,0.45,0.89,0.68,1.33      c7.39,13.92,11.63,28.76,13.01,44.45c0.13,1.54-0.24,1.92-1.76,1.9c-5.35-0.09-10.71-0.11-16.07,0.01      c-1.76,0.04-2.38-0.46-2.35-2.22c0.03-1.34-0.33-2.68-0.54-4.02c-2.44-16.16-10.36-29.58-20.89-41.69      c-1.84-2.12-4.23-3.32-7.03-3.73c-3.13-0.46-5.89,0.4-8.54,2.01c-21.32,13.01-39.38,29.7-55.39,48.73      c-3.97,4.72-3.87,10.72,0.12,15.47c7.91,9.41,16.39,18.28,25.58,26.47c9.41,8.38,19.43,15.92,30.22,22.41      c5.1,3.07,11.05,2.43,14.86-1.85c11.85-13.32,20.02-28.4,21.67-46.49c0.1-1.13,0.36-1.6,1.61-1.59      c5.71,0.07,11.43,0.06,17.14,0.01c1.1-0.01,1.54,0.27,1.38,1.43c-0.25,1.77-0.35,3.55-0.57,5.32      c-1.76,14.24-6.06,27.67-12.83,40.32c-1.21,2.26-0.87,4.08,0.87,5.3c1.73,1.21,3.55,0.89,5.3-0.98      c2.05-2.19,3.91-4.55,5.59-7.04c8.63-12.82,13.19-27.1,14.9-42.35c0.19-1.73,0.75-2.1,2.31-2.03c2.71,0.11,5.43,0.03,8.14,0.03      c2.79,0,5.58,0.09,8.36-0.03c1.56-0.07,1.88,0.42,1.75,1.91c-1.68,19.27-7.66,37.06-18.23,53.29c-1.59,2.44-1.55,4.33,0.06,5.75      c1.67,1.47,3.61,1.21,5.88-0.81c4.17-3.74,7.75-7.99,10.76-12.71c8.85-13.89,13.3-29.24,14.88-45.5      c0.14-1.4,0.43-1.95,1.96-1.92c5.64,0.1,11.29,0.1,16.93,0c1.53-0.03,1.69,0.55,1.58,1.85c-1.84,21.4-8.96,40.83-21.59,58.22      c-1.53,2.1-1.56,3.97-0.15,5.43c1.47,1.53,3.48,1.53,5.58-0.06c5.88-4.45,10.63-9.94,14.5-16.17      c8.99-14.47,13.47-30.41,15.03-47.25c0.14-1.52,0.47-2.05,2.1-2.02c5.64,0.12,11.29,0.07,16.93,0.02      c1.2-0.01,1.58,0.29,1.47,1.55c-1.11,13.05-4.18,25.59-9.51,37.57c-3.37,7.59-7.52,14.73-12.47,21.39      c-0.96,1.29-1.46,2.63-0.86,4.18c0.92,2.36,3.53,3.03,5.9,1.44c6.53-4.36,11.57-10.16,15.63-16.8      c8.89-14.55,13.14-30.56,14.67-47.39c0.12-1.35,0.34-1.98,1.93-1.95c5.64,0.11,11.28,0.09,16.92,0.01      c1.52-0.03,1.67,0.49,1.56,1.84c-1.31,15.93-5.72,30.93-13.24,45.03c-1.27,2.38-0.99,4.29,0.75,5.52      c1.68,1.19,3.5,0.88,5.33-0.97c3.32-3.37,6.21-7.08,8.67-11.12c7.21-11.81,10.75-24.78,11.93-38.47      c0.11-1.25,0.27-1.87,1.78-1.85c5.71,0.1,11.42,0.09,17.14,0.01c1.39-0.02,1.59,0.41,1.48,1.7c-0.68,8.14-2.14,16.11-4.48,23.93      c-0.26,0.89-0.6,1.77-0.29,2.72c0.48,1.47,1.41,2.47,2.98,2.74c1.76,0.3,3.01-0.47,3.99-1.89c5.12-7.45,8.33-15.7,10.32-24.48      c0.35-1.52-0.04-3.69,1.08-4.4c1.19-0.75,3.19-0.14,4.81-0.32c1.83-0.21,3.03,0.48,4.18,1.87c2.32,2.8,4.85,5.43,7.24,8.18      c12.82,14.68,25.44,29.55,39.53,43.07c1.89,1.81,3.55,2.15,5.11,0.99c1.47-1.09,1.68-2.73,0.68-5.01      C1803.58,1976.41,1801.7,1972.41,1800.08,1968.3z M1500.42,1916.08c-5.97,0-10.8-4.76-10.82-10.67      c-0.02-6.01,4.86-10.83,10.93-10.8c5.82,0.03,10.54,4.81,10.55,10.69C1511.1,1911.3,1506.38,1916.07,1500.42,1916.08z"/>
			</g>
		</g>
		<g>
			<g>
				<path class="st24" d="M1030.21,1586.59l39.06-1.5l39.06-1.13l78.13-2.24c52.08-1.17,104.17-2.23,156.26-2.9      c52.08-0.92,104.17-1.13,156.25-1.67l156.26-0.55l156.26,0.53c52.08,0.56,104.17,0.74,156.25,1.67      c52.08,0.67,104.17,1.73,156.26,2.9l78.13,2.25l39.06,1.14l39.06,1.51l-39.06,1.51l-39.06,1.14l-78.13,2.25      c-52.08,1.17-104.17,2.23-156.26,2.9c-52.08,0.93-104.17,1.11-156.25,1.67l-156.26,0.53l-156.26-0.55      c-52.08-0.54-104.17-0.75-156.25-1.67c-52.09-0.67-104.17-1.73-156.26-2.9l-78.13-2.24l-39.06-1.13L1030.21,1586.59z"/>
			</g>
		</g>
		<g>
			<g>
				<path class="st24" d="M250.13,2504.73c28.25-4.76,56.51-7.17,84.77-9.14c28.25-2,56.51-2.62,84.77-3.2      c56.51-1.25,113.02-0.59,169.53,0.09l84.77,0.55l84.77,0.03h169.53h678.12h678.12h339.06l84.77-0.02      c28.25,0.01,56.51-0.79,84.77-1.16c28.25-0.38,56.51,0.21,84.77,1.67c14.13,0.83,28.25,1.99,42.38,3.83      c14.13,1.79,28.25,3.92,42.38,7.34c3.22,0.78,5.2,4.03,4.42,7.25c-0.55,2.26-2.31,3.9-4.42,4.42      c-14.13,3.42-28.25,5.55-42.38,7.34c-14.13,1.84-28.25,3-42.38,3.83c-28.25,1.47-56.51,2.05-84.77,1.67      c-28.25-0.37-56.51-1.17-84.77-1.16l-84.77-0.02h-339.06h-678.12H928.26H758.73l-84.77,0.03l-84.77,0.55      c-56.51,0.68-113.02,1.35-169.53,0.09c-28.25-0.57-56.51-1.2-84.77-3.2c-28.25-1.98-56.51-4.38-84.77-9.14      c-3.22-0.54-5.39-3.59-4.85-6.82C245.71,2507.03,247.72,2505.14,250.13,2504.73z"/>
			</g>
		</g>
	</g>
</g>
</svg>